<svg width="512" height="512" viewBox="0 0 512 512" fill="none" xmlns="http://www.w3.org/2000/svg">
<path d="M163.372 91H349.32C362.157 91 372.563 101.375 372.563 114.174V299.568C372.563 312.367 362.157 322.742 349.32 322.742H163.372C150.535 322.742 140.129 312.367 140.129 299.568V114.174C140.129 101.375 150.535 91 163.372 91ZM163.372 95.6348C158.441 95.6348 153.711 97.5881 150.224 101.065C146.737 104.542 144.778 109.257 144.778 114.174V299.568C144.778 304.485 146.737 309.2 150.224 312.677C153.711 316.154 158.441 318.107 163.372 318.107H349.32C354.251 318.107 358.981 316.154 362.468 312.677C365.955 309.2 367.914 304.485 367.914 299.568V114.174C367.914 109.257 365.955 104.542 362.468 101.065C358.981 97.5881 354.251 95.6348 349.32 95.6348H163.372Z" fill="#080808"/>
<path d="M163.372 100.27H349.319C353.018 100.27 356.565 101.734 359.181 104.342C361.796 106.95 363.265 110.486 363.265 114.174V299.567C363.265 303.255 361.796 306.792 359.181 309.399C356.565 312.007 353.018 313.472 349.319 313.472H163.372C159.673 313.472 156.126 312.007 153.51 309.399C150.895 306.792 149.426 303.255 149.426 299.567V114.174C149.426 110.486 150.895 106.95 153.51 104.342C156.126 101.734 159.673 100.27 163.372 100.27ZM163.372 104.904C160.906 104.904 158.541 105.881 156.798 107.619C155.054 109.358 154.074 111.716 154.074 114.174V299.567C154.074 302.026 155.054 304.384 156.798 306.122C158.541 307.861 160.906 308.837 163.372 308.837H349.319C351.785 308.837 354.15 307.861 355.893 306.122C357.637 304.384 358.617 302.026 358.617 299.567V114.174C358.617 111.716 357.637 109.358 355.893 107.619C354.15 105.881 351.785 104.904 349.319 104.904H163.372Z" fill="#080808"/>
<path d="M70.4015 392.736V419.899H82.5888V355.635H70.4015V381.964H43.5291V355.635H31.3418V419.899H43.5291V392.736H70.4015ZM156.096 419.899H168.748L147.324 355.635H132.186L110.577 419.899H122.95L128.027 403.509H150.926L156.096 419.899ZM139.656 366.685L147.975 393.107H130.978L139.203 366.685H139.656ZM208.923 419.899V395.134H220.46L232.473 419.899H246.042L232.833 393.756C236.841 392.4 239.838 390.13 241.837 386.933C243.847 383.747 244.846 379.937 244.846 375.523C244.846 372.512 244.393 369.778 243.51 367.322C242.615 364.867 241.349 362.77 239.722 361.021C238.084 359.272 236.097 357.94 233.762 357.013C231.427 356.098 228.778 355.635 225.816 355.635H196.736V419.899H208.923ZM224.619 384.917H208.923V366.222H224.619C226.954 366.222 228.801 366.836 230.161 368.064C231.52 369.291 232.194 371.075 232.194 373.404V377.643C232.194 379.971 231.52 381.767 230.161 383.029C228.801 384.28 226.954 384.917 224.619 384.917ZM316.413 419.899H329.065L307.641 355.635H292.491L270.882 419.899H283.255L288.344 403.509H311.243L316.413 419.899ZM299.973 366.685L308.28 393.107H291.295L299.508 366.685H299.973ZM395.74 409.961V419.899H406.266V384.917H381.88V395.134H394.532V399.281C394.532 401.123 394.172 402.71 393.428 404.065C392.685 405.408 391.709 406.544 390.477 407.47C389.246 408.385 387.794 409.08 386.132 409.544C384.471 410.007 382.682 410.227 380.776 410.227C375.908 410.227 372.04 408.756 369.135 405.814C366.242 402.872 364.802 398.574 364.802 392.922V382.612C364.802 376.902 366.231 372.593 369.1 369.674C371.958 366.755 375.792 365.307 380.59 365.307C384.471 365.307 387.561 366.222 389.873 368.064C392.185 369.905 393.916 372.21 395.09 374.967L404.977 369.164C402.63 364.438 399.435 360.824 395.369 358.299C391.302 355.785 386.376 354.534 380.59 354.534C376.28 354.534 372.377 355.264 368.868 356.735C365.359 358.218 362.339 360.361 359.818 363.187C357.285 366.002 355.333 369.488 353.95 373.635C352.568 377.782 351.871 382.554 351.871 387.952C351.871 393.35 352.545 398.111 353.904 402.223C355.263 406.335 357.122 409.787 359.492 412.579C361.862 415.37 364.662 417.478 367.892 418.892C371.122 420.293 374.654 421 378.464 421C383.332 421 387.224 419.946 390.152 417.826C393.068 415.706 394.811 413.088 395.369 409.961H395.74ZM438.866 419.899H481.342V409.127H451.054V392.736H477.833V381.964H451.054V366.407H481.342V355.635H438.866V419.899Z" fill="#080808"/>
<path d="M253.718 158.063V171.785L237.188 185.893C236.915 186.125 236.696 186.414 236.546 186.739C236.396 187.064 236.318 187.418 236.318 187.776V252.227C236.318 253.598 237.432 254.706 238.805 254.706H273.603C274.976 254.706 276.088 253.596 276.088 252.227V187.776C276.088 187.051 275.769 186.364 275.217 185.893L258.689 171.785V158.063H253.718ZM256.198 185.324C256.689 185.324 257.169 185.47 257.578 185.743C257.986 186.015 258.304 186.402 258.492 186.855C258.68 187.308 258.73 187.805 258.634 188.286C258.539 188.767 258.303 189.208 257.956 189.555C257.484 189.994 256.86 190.232 256.215 190.221C255.571 190.21 254.955 189.949 254.499 189.495C254.044 189.04 253.783 188.426 253.772 187.783C253.76 187.14 254 186.518 254.44 186.048C254.907 185.584 255.539 185.323 256.198 185.324ZM257.439 205.149C257.772 205.144 258.102 205.205 258.411 205.33C258.719 205.455 259 205.64 259.235 205.874C259.47 206.109 259.656 206.388 259.781 206.696C259.906 207.003 259.968 207.333 259.963 207.665V210.105H262.381C262.711 210.1 263.038 210.161 263.344 210.284C263.65 210.406 263.929 210.588 264.163 210.819C264.397 211.05 264.583 211.325 264.709 211.628C264.836 211.931 264.901 212.256 264.901 212.584C264.901 212.913 264.836 213.238 264.709 213.541C264.583 213.844 264.397 214.119 264.163 214.35C263.686 214.814 263.045 215.068 262.381 215.063H254.96C253.581 215.063 252.506 216.134 252.506 217.541C252.506 218.948 253.581 220.018 254.96 220.018H257.434C261.516 220.018 264.866 223.382 264.866 227.454C264.866 231.504 261.535 234.857 257.477 234.881V237.328C257.49 237.998 257.229 238.635 256.763 239.106C256.531 239.34 256.255 239.525 255.951 239.651C255.647 239.778 255.321 239.843 254.991 239.843C254.662 239.843 254.336 239.778 254.032 239.651C253.728 239.525 253.452 239.34 253.22 239.106C252.989 238.872 252.808 238.594 252.685 238.289C252.562 237.984 252.502 237.658 252.506 237.33V234.879L250.021 234.886C249.691 234.89 249.364 234.83 249.058 234.707C248.752 234.585 248.473 234.403 248.238 234.172C248.004 233.941 247.818 233.666 247.692 233.363C247.565 233.06 247.5 232.735 247.5 232.407C247.5 232.078 247.565 231.753 247.692 231.45C247.818 231.147 248.004 230.873 248.238 230.641C248.715 230.177 249.356 229.917 250.02 229.929H257.428C258.807 229.929 259.889 228.857 259.889 227.452C259.889 226.047 258.807 224.973 257.428 224.973H254.962C250.879 224.973 247.535 221.609 247.535 217.539C247.535 213.468 250.885 210.104 254.96 210.104H254.992V207.661C254.983 207.005 255.234 206.372 255.692 205.901C256.15 205.43 256.776 205.159 257.434 205.147L257.439 205.149ZM226.307 149.408C224.139 149.463 222.305 150.393 221.15 151.52C210.686 161.736 200.263 172.034 189.826 182.286C181.761 190.204 179.15 200.854 179.15 208.827V263.366H208.977C208.952 257.593 211.866 254.129 214.322 250.151C216.775 246.174 218.92 242.432 218.92 236.905C218.92 232.072 218.105 228.454 216.981 224.8C214.849 217.853 213.942 209.899 213.942 196.524V196.473C213.942 192.372 210.605 189.046 206.485 189.046C202.365 189.046 199.029 192.372 199.029 196.473V228.741C196.518 228.741 194.008 227.063 194.058 223.71V196.481C194.058 189.698 199.681 184.098 206.485 184.098C208.623 184.098 210.624 184.68 212.382 185.658C218.813 179.235 225.612 172.245 231.341 166.749C232.715 165.443 233.851 163.831 233.827 161.793C233.789 158.857 233.827 161.793 233.827 156.837C233.827 152.767 230.447 149.409 226.358 149.409H226.301L226.307 149.408ZM286.092 149.408C288.26 149.463 290.094 150.393 291.249 151.52C301.713 161.736 312.136 172.034 322.573 182.286C330.639 190.204 333.249 200.854 333.249 208.827V263.366H303.422C303.447 257.593 300.533 254.129 298.077 250.151C295.624 246.174 293.48 242.432 293.48 236.905C293.48 232.072 294.294 228.454 295.419 224.8C297.55 217.853 298.457 209.899 298.457 196.524V196.473C298.457 192.372 301.795 189.046 305.915 189.046C310.035 189.046 313.371 192.372 313.371 196.473V228.741C315.881 228.741 318.391 227.063 318.342 223.71V196.481C318.342 189.698 312.718 184.098 305.915 184.098C303.847 184.105 301.817 184.642 300.018 185.658C293.586 179.235 286.787 172.245 281.059 166.749C279.684 165.443 278.549 163.831 278.572 161.793C278.611 158.857 278.572 161.793 278.572 156.837C278.572 152.767 281.953 149.409 286.041 149.409H286.098L286.092 149.408Z" fill="black"/>
<path d="M238.026 210.251H212.658V220.676H238.026V210.251Z" fill="black"/>
<path d="M297.981 211.061H272.613V221.486H297.981V211.061Z" fill="black"/>
</svg>
